<?xml version="1.0" encoding="UTF-8"?>
<svg width="512pt" height="512pt" version="1.1" viewBox="0 0 512 512" xmlns="http://www.w3.org/2000/svg">
 <g fill="#424242">
  <path d="m287.6 250.8-46.391 46.387-15.953-15.949c-7.9883-8-20.969-8-28.961 0-8 7.9961-8 20.965 0 28.961l30.434 30.434c3.9961 4 9.2383 6 14.48 6 5.2383 0 10.484-2 14.48-6l60.871-60.871c8-7.9961 8-20.965 0-28.961-7.9922-8-20.973-8-28.961 0z"/>
  <path d="m431.14 267.02c0-41.059-2.2695-82.551-6.7461-123.26-2.3945-22.336-12.195-43.59-27.676-59.93-10.156-10.602-22.332-18.758-35.672-24.047-7.6445-20.199-27.055-34.18-49.812-34.18h-110.47c-22.758 0-42.168 13.984-49.812 34.184-13.344 5.293-25.531 13.465-35.758 24.133-15.395 16.254-25.195 37.512-27.578 59.789-4.4844 40.766-6.7539 82.254-6.7539 123.32 0 41.059 2.2695 82.551 6.7461 123.26 2.3945 22.336 12.195 43.59 27.727 59.98 15.906 16.484 36.109 26.906 58.371 30.121 27.309 4.0195 54.816 6.0312 82.316 6.0312 27.48 0 54.961-2.0117 82.234-6.0195 22.309-3.2266 42.516-13.645 58.555-30.266 15.395-16.254 25.195-37.512 27.578-59.789 4.4805-40.773 6.75-82.262 6.75-123.32zm-230.38-200.46h110.47c6.4336 0 11.727 4.7305 12.305 11.012 0.070313 0.75781 0.18359 1.5156 0.33984 2.2578v0.007813c-0.019531 0.39453-0.11328 0.76172-0.16797 1.1445-0.0625 0.43359-0.085938 0.87891-0.19141 1.2969-0.0625 0.25-0.17578 0.47656-0.25391 0.71875-0.16406 0.52344-0.31641 1.0547-0.54688 1.5469-0.25 0.53516-0.57031 1.0234-0.88672 1.5156-0.10938 0.17188-0.19141 0.36328-0.30859 0.53125-1.8398 2.5625-4.6094 4.4102-7.8125 5.0469-0.80078 0.16016-1.6289 0.24219-2.4766 0.24219h-110.47c-1.668 0-3.2578-0.32422-4.7148-0.91797-4.375-1.7812-7.543-6-7.9102-11.23v-0.007813c0.14453-0.71094 0.25-1.4297 0.32031-2.1523 0.57812-6.2812 5.8711-11.012 12.305-11.012zm182.9 319.35c-1.4414 13.469-7.3398 26.27-16.465 35.91-9.5391 9.8867-21.574 16.121-34.859 18.039-50.656 7.4492-102.02 7.4492-152.73-0.011719-13.234-1.9102-25.27-8.1445-34.676-17.895-9.2617-9.7734-15.16-22.574-16.609-36.102-4.3164-39.281-6.5039-79.262-6.5039-118.84s2.1914-79.555 6.5156-118.89c1.4414-13.469 7.3398-26.27 16.516-35.961 2.6914-2.8047 5.6094-5.3242 8.7109-7.5352 0.011719 0.019532 0.023438 0.035156 0.035156 0.054688 1.0156 1.8711 2.1641 3.6523 3.3867 5.3789 0.34766 0.49219 0.71484 0.96094 1.0781 1.4414 0.98438 1.3008 2.0273 2.5508 3.125 3.7539 0.375 0.41406 0.73438 0.83594 1.1211 1.2344 1.4648 1.5078 3 2.9453 4.6289 4.2734 0.28125 0.22656 0.58203 0.42578 0.86719 0.64844 1.3984 1.0977 2.8555 2.1172 4.3594 3.0742 0.53125 0.33594 1.0664 0.66016 1.6094 0.98047 1.5039 0.88281 3.0547 1.6914 4.6445 2.4258 0.37891 0.17578 0.73828 0.375 1.1211 0.53906 1.957 0.84766 3.9766 1.5664 6.043 2.1797 0.51953 0.15234 1.0508 0.26953 1.5742 0.40625 1.6406 0.42969 3.3047 0.78516 5.0039 1.0586 0.625 0.10156 1.2422 0.20703 1.875 0.28516 2.2109 0.27734 4.4453 0.46875 6.7305 0.46875h110.47c2.2852 0 4.5195-0.19141 6.7305-0.46875 0.62891-0.078125 1.25-0.18359 1.8711-0.28516 1.6953-0.27734 3.3633-0.62891 5.0039-1.0586 0.52734-0.13672 1.0586-0.25391 1.5781-0.40625 2.0664-0.61328 4.0859-1.332 6.043-2.1797 0.38281-0.16406 0.74219-0.36719 1.1172-0.53906 1.5938-0.73438 3.1406-1.543 4.6484-2.4258 0.54297-0.32031 1.082-0.64453 1.6133-0.98047 1.5039-0.95312 2.957-1.9766 4.3594-3.0703 0.28516-0.22266 0.58984-0.42188 0.86719-0.64844 1.6289-1.3281 3.1602-2.7617 4.6211-4.2656 0.39453-0.40625 0.76172-0.83984 1.1445-1.2578 1.0898-1.1953 2.1211-2.4336 3.0977-3.7227 0.37109-0.48828 0.74609-0.96875 1.0977-1.4688 1.2148-1.7188 2.3594-3.4922 3.3711-5.3516 0.011718-0.023437 0.03125-0.046875 0.042968-0.070313 3.0742 2.1914 5.9648 4.6836 8.6211 7.457 9.2617 9.7734 15.16 22.574 16.609 36.102 4.3164 39.281 6.5039 79.262 6.5039 118.84 0.003907 39.566-2.1875 79.547-6.5117 118.88z"/>
 </g>
</svg>
