<?xml version="1.0" encoding="UTF-8"?>
<svg width="512pt" height="512pt" version="1.1" viewBox="0 0 512 512" xmlns="http://www.w3.org/2000/svg">
 <g>
  <rect width="512" height="512" fill="#facc14"/>
  <path d="m275.9 252.73-29.215 29.211-10.047-10.043c-5.0312-5.0391-13.207-5.0391-18.238 0-5.0391 5.0352-5.0391 13.203 0 18.238l19.168 19.168c2.5156 2.5195 5.8203 3.7773 9.1172 3.7773 3.3008 0 6.6016-1.2578 9.1172-3.7773l38.332-38.332c5.0391-5.0352 5.0391-13.203 0-18.238-5.0312-5.043-13.203-5.043-18.234-0.003906z" fill="#424242"/>
  <path d="m366.3 262.94c0-25.859-1.4297-51.988-4.2461-77.625-1.5078-14.066-7.6797-27.453-17.43-37.742-6.3984-6.6758-14.062-11.812-22.465-15.145-4.8164-12.719-17.039-21.527-31.371-21.527h-69.57c-14.332 0-26.555 8.8086-31.371 21.527-8.4023 3.3359-16.078 8.4766-22.52 15.195-9.6953 10.238-15.867 23.621-17.367 37.652-2.8242 25.672-4.2539 51.801-4.2539 77.66s1.4297 51.988 4.2461 77.625c1.5078 14.066 7.6797 27.453 17.461 37.773 10.016 10.383 22.742 16.945 36.758 18.969 17.199 2.5312 34.52 3.7969 51.84 3.7969 17.305 0 34.613-1.2656 51.789-3.793 14.051-2.0312 26.773-8.5938 36.875-19.059 9.6953-10.238 15.867-23.621 17.367-37.652 2.8281-25.672 4.2578-51.801 4.2578-77.656zm-145.08-126.24h69.57c4.0508 0 7.3828 2.9805 7.75 6.9336 0.042969 0.47656 0.11719 0.95313 0.21484 1.4219v0.003906c-0.011719 0.24609-0.070312 0.48047-0.10547 0.72266-0.039062 0.27344-0.054687 0.55078-0.12109 0.81641-0.039063 0.15625-0.11328 0.30078-0.16016 0.45312-0.10547 0.32812-0.19922 0.66406-0.34375 0.97266-0.15625 0.33594-0.35938 0.64453-0.55859 0.95312-0.070313 0.10938-0.12109 0.23047-0.19531 0.33594-1.1602 1.6133-2.9023 2.7773-4.9219 3.1797-0.50391 0.10156-1.0273 0.15234-1.5586 0.15234h-69.57c-1.0508 0-2.0508-0.20312-2.9688-0.57812-2.7539-1.1211-4.75-3.7812-4.9805-7.0742v-0.003907c0.089844-0.44922 0.15625-0.90234 0.19922-1.3555 0.36719-3.957 3.6992-6.9336 7.75-6.9336zm115.18 201.11c-0.90625 8.4844-4.6211 16.543-10.367 22.613-6.0078 6.2266-13.586 10.152-21.953 11.359-31.902 4.6914-64.25 4.6914-96.184-0.007812-8.3359-1.2031-15.914-5.1289-21.836-11.27-5.832-6.1562-9.5469-14.219-10.461-22.734-2.7188-24.738-4.0977-49.914-4.0977-74.836s1.3789-50.102 4.1016-74.871c0.90625-8.4844 4.6211-16.543 10.402-22.645 1.6953-1.7656 3.5312-3.3516 5.4844-4.7461 0.007813 0.011719 0.015625 0.023438 0.019531 0.035157 0.64063 1.1797 1.3633 2.3008 2.1328 3.3867 0.21875 0.30859 0.44922 0.60547 0.67969 0.91016 0.62109 0.82031 1.2773 1.6055 1.9688 2.3633 0.23828 0.25781 0.46094 0.52734 0.70703 0.77734 0.92188 0.94922 1.8906 1.8555 2.9141 2.6914 0.17578 0.14453 0.36719 0.26953 0.54297 0.40625 0.88281 0.69141 1.7969 1.332 2.7461 1.9375 0.33594 0.21094 0.67188 0.41406 1.0117 0.61719 0.94922 0.55469 1.9219 1.0625 2.9258 1.5273 0.23828 0.10938 0.46484 0.23438 0.70703 0.33984 1.2305 0.53516 2.5039 0.98828 3.8047 1.3711 0.32812 0.097657 0.66016 0.16797 0.99219 0.25391 1.0312 0.27344 2.082 0.49609 3.1523 0.66797 0.39453 0.0625 0.78125 0.12891 1.1797 0.17969 1.3906 0.17578 2.8008 0.29688 4.2383 0.29688h69.57c1.4375 0 2.8477-0.12109 4.2383-0.29688 0.39844-0.050781 0.78516-0.11719 1.1797-0.17969 1.0703-0.17188 2.1172-0.39453 3.1484-0.66797 0.33203-0.085938 0.66797-0.16016 0.99609-0.25781 1.3008-0.38672 2.5742-0.83984 3.8047-1.3711 0.23828-0.10547 0.46484-0.23047 0.70312-0.33984 1.0039-0.46094 1.9766-0.97266 2.9258-1.5273 0.34375-0.19922 0.67969-0.40625 1.0156-0.61719 0.94922-0.60156 1.8633-1.2461 2.7461-1.9336 0.17969-0.14062 0.37109-0.26562 0.54688-0.41016 1.0234-0.83594 1.9922-1.7383 2.9102-2.6875 0.25-0.25781 0.48047-0.52734 0.71875-0.79297 0.68359-0.75391 1.3359-1.5312 1.9492-2.3438 0.23438-0.30859 0.46875-0.60938 0.69141-0.92578 0.76562-1.082 1.4883-2.1992 2.1211-3.3711 0.007813-0.015625 0.019532-0.027344 0.027344-0.042969 1.9375 1.3789 3.7578 2.9492 5.4297 4.6953 5.832 6.1562 9.5469 14.219 10.461 22.734 2.7188 24.738 4.0977 49.914 4.0977 74.836 0.011718 24.926-1.3711 50.102-4.0938 74.875z" fill="#424242"/>
 </g>
</svg>
